<svg width="0" height="0">
    <symbol id="search_old" viewBox="0 0 15 16" fill="none" xmlns="http://www.w3.org/2000/svg">
        <path d="M14.8167 14.7898L10.5511 10.5399C11.3774 9.52302 11.8749 8.23091 11.8749 6.82362C11.8749 3.56191 9.21113 0.907959 5.93742 0.907959C2.6637 0.907959 0 3.56189 0 6.82359C0 10.0853 2.66373 12.7392 5.93745 12.7392C7.34992 12.7392 8.64679 12.2436 9.66739 11.4204L13.933 15.6703C14.0548 15.7917 14.2148 15.8528 14.3749 15.8528C14.5349 15.8528 14.6949 15.7917 14.8167 15.6703C15.0611 15.4268 15.0611 15.0333 14.8167 14.7898ZM5.92105 11.9199C3.33607 11.9199 0.789474 9.38271 0.789474 6.80722C0.789474 4.23172 3.33607 1.69453 5.92105 1.69453C8.50603 1.69453 11.0526 4.23172 11.0526 6.80722C11.0526 9.38271 8.50601 11.9199 5.92105 11.9199Z" fill="currentColor"/>
    </symbol>
    <symbol id="home" viewBox="0 0 16 15" fill="none" xmlns="http://www.w3.org/2000/svg">
        <path fill-rule="evenodd" clip-rule="evenodd" d="M-0.000112 8.43738C-0.000112 3.7774 3.58165 -7.5e-05 7.99987 -7.5e-05C12.4181 -7.5e-05 15.9999 3.7774 15.9999 8.43738C15.9999 8.95522 15.6019 9.3749 15.111 9.3749C14.6201 9.3749 14.2221 8.95522 14.2221 8.43738C14.2221 4.81876 11.4308 1.87479 7.99987 1.87479C4.5689 1.87479 1.7776 4.81876 1.7776 8.43738C1.7776 8.95522 1.3797 9.3749 0.888752 9.3749C0.397792 9.3749 -0.000112 8.95522 -0.000112 8.43738ZM9.77768 11.2498C9.77768 10.216 8.98011 9.3749 7.99987 9.3749C7.01955 9.3749 6.22208 10.216 6.22208 11.2498C6.22208 12.2837 7.01955 13.1248 7.99987 13.1248C8.98011 13.1248 9.77768 12.2837 9.77768 11.2498ZM8.88874 7.618V4.68734C8.88874 4.16949 8.49083 3.74982 7.99987 3.74982C7.50893 3.74982 7.11102 4.16949 7.11102 4.68734V7.61799C5.57746 8.03426 4.44427 9.50246 4.44427 11.2498C4.44427 13.3209 6.03619 14.9998 7.99987 14.9998C9.96357 14.9998 11.5554 13.3209 11.5554 11.2498C11.5554 9.50247 10.4223 8.03427 8.88874 7.618Z" fill="currentColor"/>
    </symbol>
    <symbol id="timeman" viewBox="0 0 16 16" fill="none" xmlns="http://www.w3.org/2000/svg">
        <path fill-rule="evenodd" clip-rule="evenodd" d="M-1.6e-05 7.9999C-1.6e-05 3.58158 3.58174 -0.000112 7.99997 -0.000112C12.4182 -0.000112 16 3.58158 16 7.9999C16 12.4182 12.4182 15.9999 7.99997 15.9999C3.58174 15.9999 -1.6e-05 12.4182 -1.6e-05 7.9999ZM1.99998 7.9999C1.99998 11.3084 4.69158 14 7.99997 14C11.3084 14 14 11.3084 14 7.9999C14 4.6916 11.3084 1.99997 7.99997 1.99997C4.69158 1.99997 1.99998 4.6916 1.99998 7.9999ZM8.49997 7.9999H10.01C10.5567 7.9999 11 8.44322 11 8.98986V9.00986C11 9.55667 10.5567 9.99998 10.01 9.99998H7.99997H6.99997H6.99C6.44325 9.99998 5.99997 9.55667 5.99997 9.00986V5.98998C5.99997 5.44317 6.44325 4.99986 6.99 4.99986H7.00995C7.5567 4.99986 7.99997 5.44317 7.99997 5.98998V7.5C7.99997 7.776 8.22382 7.9999 8.49997 7.9999Z" fill="currentColor"/>
    </symbol>
    <symbol id="inbox" viewBox="0 0 16 14" fill="none" xmlns="http://www.w3.org/2000/svg">
        <path fill-rule="evenodd" clip-rule="evenodd" d="M12.4444 0.875014C12.4444 0.391678 12.0464 -7e-05 11.5555 -7e-05H4.44435C3.9535 -7e-05 3.5555 0.391678 3.5555 0.875014L-1.6e-05 6.99999V13.125C-1.6e-05 13.6081 0.397888 13.9999 0.888832 13.9999H15.1111C15.602 13.9999 16 13.6081 16 13.125V6.99999L12.4444 0.875014ZM5.09514 1.7499H10.9047L13.4444 6.12492H10.2222C9.97669 6.12492 9.77778 6.32087 9.77778 6.56237V6.92202C9.77778 7.83538 9.10114 8.65267 8.17754 8.74133C7.11786 8.84311 6.22216 8.02255 6.22216 6.99999V6.56237C6.22216 6.32087 6.02317 6.12492 5.77778 6.12492H2.5555L5.09514 1.7499ZM13.7778 12.2499H2.22218C1.9767 12.2499 1.7777 12.0539 1.7777 11.8124V7.87489H4.56094C4.95618 9.38371 6.34384 10.4999 7.99997 10.4999C9.65611 10.4999 11.0437 9.38371 11.439 7.87489H14.2222V11.8124C14.2222 12.0539 14.0232 12.2499 13.7778 12.2499Z" fill="currentColor"/>
    </symbol>
    <symbol id="calendar" viewBox="0 0 16 16" fill="none" xmlns="http://www.w3.org/2000/svg">
        <path fill-rule="evenodd" clip-rule="evenodd" d="M11.01 -0.000112H15C15.5523 -0.000112 16 0.447696 16 0.999856V2.99994V3.9999V15C16 15.5523 15.5523 15.9999 15 15.9999H0.999984C0.447696 15.9999 -1.6e-05 15.5523 -1.6e-05 15V3.9999V2.99994V0.999856C-1.6e-05 0.447696 0.447696 -0.000112 0.999984 -0.000112H4.99H5.00995H10.99H11.01ZM2.49998 3.9999C2.22384 3.9999 1.99998 4.22381 1.99998 4.49997V13.4999C1.99998 13.7761 2.22384 13.9998 2.49998 13.9998H13.5C13.7761 13.9998 14 13.7761 14 13.4999V4.49997C14 4.22381 13.7761 3.9999 13.5 3.9999H11.01H10.99H5.00995H4.99H2.49998ZM10.5 10H8.99997V7.49984V6.49989C8.99997 6.22371 8.77611 5.99998 8.49997 5.99998H7.49997H5.49997C5.22382 5.99998 4.99997 6.22371 4.99997 6.49989V7.49984C4.99997 7.77602 5.22382 7.9999 5.49997 7.9999H6.99997V10H5.49997C5.22382 10 4.99997 10.2237 4.99997 10.4999V11.4999C4.99997 11.776 5.22382 11.9999 5.49997 11.9999H7.49997H8.49997H10.5C10.7761 11.9999 11 11.776 11 11.4999V10.4999C11 10.2237 10.7761 10 10.5 10Z" fill="currentColor"/>
    </symbol>
    <symbol id="analytics" viewBox="0 0 16 10" fill="none" xmlns="http://www.w3.org/2000/svg">
        <path fill-rule="evenodd" clip-rule="evenodd" d="M5.99933 9.99945C5.68688 9.99945 5.38893 9.853 5.19954 9.59908L3.04728 6.72979L1.83138 8.5541C1.52483 9.01312 0.903616 9.1361 0.44464 8.83148C-0.014336 8.52478 -0.139344 7.90466 0.167392 7.44478L2.16738 4.44474C2.34707 4.17426 2.64779 4.00918 2.97208 3.99935C3.29922 4.00435 3.60493 4.1389 3.79922 4.39989L5.8285 7.10479L8.10483 2.55211C8.26005 2.24265 8.5639 2.03462 8.90952 2.0034C9.25718 1.96821 9.59115 2.12156 9.79922 2.3998L11.8285 5.10488L14.1049 0.55202C14.3519 0.05903 14.9515 -0.1402 15.4467 0.10491C15.9408 0.35193 16.1409 0.95256 15.8939 1.44676L12.8938 7.44668C12.7387 7.75631 12.4348 7.96434 12.0892 7.99539C11.7416 8.02592 11.4076 7.87723 11.1995 7.59899L9.17024 4.89391L6.89382 9.4466C6.7387 9.75623 6.43485 9.96426 6.08922 9.99548C6.05901 9.99841 6.0287 9.99945 5.99933 9.99945Z" fill="currentColor"/>
    </symbol>
    <symbol id="settings" viewBox="0 0 16 16" fill="none" xmlns="http://www.w3.org/2000/svg">
        <path fill-rule="evenodd" clip-rule="evenodd" d="M15.1643 6.86058L13.8392 6.63979C13.6867 5.98258 13.4263 5.36798 13.0775 4.81341L13.8155 3.78016C14.0969 3.38618 14.0522 2.84643 13.7099 2.50421L13.4957 2.28997C13.1533 1.94773 12.6137 1.90306 12.2197 2.1844L11.1864 2.9225C10.6317 2.57354 10.0173 2.31325 9.3601 2.16059L9.1393 0.835472C9.05882 0.353344 8.6417 -9.6e-05 8.15288 -9.6e-05H7.84707C7.35826 -9.6e-05 6.94102 0.353344 6.86066 0.835472L6.63976 2.16059C5.98261 2.31325 5.36814 2.57354 4.81344 2.9225L3.78019 2.1844C3.38624 1.90306 2.84661 1.94773 2.50422 2.28997L2.29008 2.50421C1.94768 2.84643 1.90306 3.38618 2.18448 3.78016L2.92246 4.81341C2.57362 5.36798 2.31326 5.98258 2.16064 6.63979L0.835536 6.86058C0.35336 6.94096 -1.6e-05 7.35824 -1.6e-05 7.84709V8.15275C-1.6e-05 8.6416 0.35336 9.05886 0.835536 9.13909L2.16064 9.36005C2.31326 10.0173 2.57362 10.6317 2.92246 11.1864L2.18448 12.2197C1.90306 12.6137 1.94768 13.1532 2.29008 13.4956L2.50422 13.7097C2.84661 14.0521 3.38624 14.0968 3.78019 13.8154L4.81344 13.0773C5.36814 13.4261 5.98261 13.6866 6.63976 13.8392L6.86066 15.1644C6.94102 15.6465 7.35826 15.9999 7.84707 15.9999H8.15278C8.6417 15.9999 9.05882 15.6465 9.1393 15.1644L9.3601 13.8392C10.0173 13.6866 10.6317 13.4261 11.1864 13.0773L12.2197 13.8154C12.6137 14.0968 13.1533 14.0521 13.4957 13.7097L13.7099 13.4956C14.0522 13.1532 14.0969 12.6137 13.8155 12.2197L13.0775 11.1864C13.4263 10.6317 13.6867 10.0173 13.8392 9.36005L15.1643 9.13909C15.6466 9.05886 16 8.6416 16 8.15275V7.84709C16 7.35824 15.6466 6.94096 15.1643 6.86058ZM7.99997 11C6.3431 11 4.99997 9.65674 4.99997 7.99992C4.99997 6.34309 6.3431 4.99987 7.99997 4.99987C9.65685 4.99987 11 6.34309 11 7.99992C11 9.65674 9.65685 11 7.99997 11Z" fill="currentColor"/>
    </symbol>
    <symbol id="search" viewBox="0 0 18 18" fill="none" xmlns="http://www.w3.org/2000/svg">
        <path fill-rule="evenodd" clip-rule="evenodd" d="M6.74863 2.24982C9.22784 2.24982 11.2449 4.26854 11.2449 6.74989C11.2449 7.68429 10.9566 8.5837 10.4113 9.35078L9.96898 9.97297L9.3474 10.4156C8.58094 10.9614 7.68229 11.2498 6.74863 11.2498C4.26942 11.2498 2.25243 9.23125 2.25243 6.74989C2.25243 4.26854 4.26942 2.24982 6.74863 2.24982ZM6.74863 -0.000216C3.02386 -0.000216 0.004374 3.02191 0.004374 6.74989C0.004374 10.4777 3.02386 13.4998 6.74863 13.4998C8.20429 13.4998 9.5486 13.0337 10.6507 12.2489L16.0671 17.6697C16.287 17.8898 16.5751 17.9999 16.8633 17.9999C17.1514 17.9999 17.4396 17.8898 17.6594 17.6697C18.0991 17.2299 18.0991 16.5163 17.6594 16.0761L12.243 10.6552C13.0273 9.55208 13.493 8.20661 13.493 6.74989C13.493 3.02191 10.4734 -0.000216 6.74863 -0.000216Z" fill="currentColor"/>
    </symbol>
    <symbol id="bell" viewBox="0 0 16 16" fill="none" xmlns="http://www.w3.org/2000/svg">
        <path fill-rule="evenodd" clip-rule="evenodd" d="M7.99992 1.99982C10.2056 1.99982 11.9999 3.79413 11.9999 5.99984V9.99984H3.99992V5.99984C3.99992 3.79413 5.79437 1.99982 7.99992 1.99982ZM13.9999 5.99984V9.99984H14.9999C15.5522 9.99984 15.9999 10.4476 15.9999 10.9998C15.9999 11.5521 15.5522 11.9998 14.9999 11.9998H13.9999H1.99992H0.99992C0.447632 11.9998 -8e-05 11.5521 -8e-05 10.9998C-8e-05 10.4476 0.447632 9.99984 0.99992 9.99984H1.99992V5.99984C1.99992 2.68619 4.68618 -0.000256 7.99992 -0.000256C11.3137 -0.000256 13.9999 2.68619 13.9999 5.99984ZM5.99992 13.9998C5.99992 15.1043 6.89534 15.9999 7.99992 15.9999C9.1045 15.9999 9.99992 15.1043 9.99992 13.9998V12.9997H5.99992V13.9998Z" fill="currentColor"/>
    </symbol>
    <symbol id="arrow_down" viewBox="0 0 10 6" fill="none" xmlns="http://www.w3.org/2000/svg">
        <path fill-rule="evenodd" clip-rule="evenodd" d="M9.8203 1.52888C10.0188 1.34034 10.0188 1.0352 9.8203 0.84873L9.10568 0.168576C8.90908 -0.019962 8.5897 -0.019962 8.3931 0.168576L4.99944 3.44651L1.57659 0.141498C1.37796 -0.047214 1.05848 -0.047214 0.86207 0.141498L0.14745 0.821472C-0.04924 1.00811 -0.04924 1.31309 0.14745 1.50163L4.64116 5.82868C4.8398 6.01515 5.15899 6.01515 5.35578 5.82868L9.8203 1.52888Z" fill="currentColor"/>
    </symbol>
    <symbol id="time" viewBox="0 0 16 16" fill="none" xmlns="http://www.w3.org/2000/svg">
        <path fill-rule="evenodd" clip-rule="evenodd" d="M-8e-05 7.99994C-8e-05 3.58163 3.58168 -8e-05 8.00002 -8e-05C12.4182 -8e-05 16 3.58163 16 7.99994C16 12.4181 12.4182 15.9998 8.00002 15.9998C3.58168 15.9998 -8e-05 12.4181 -8e-05 7.99994ZM1.99992 7.99994C1.99992 11.3082 4.69154 13.9999 8.00002 13.9999C11.3084 13.9999 14 11.3082 14 7.99994C14 4.69147 11.3084 1.99984 8.00002 1.99984C4.69154 1.99984 1.99992 4.69147 1.99992 7.99994ZM8.50002 7.99994H10.01C10.5567 7.99994 11 8.44307 11 8.98989V9.0099C11 9.55654 10.5567 9.99986 10.01 9.99986H8.00002H7.00002H6.98994C6.4432 9.99986 5.99992 9.55654 5.99992 9.0099V5.98984C5.99992 5.4432 6.4432 4.99989 6.98994 4.99989H7.00998C7.55674 4.99989 8.00002 5.4432 8.00002 5.98984V7.49987C8.00002 7.77603 8.22387 7.99994 8.50002 7.99994Z" fill="#7E8E9F"/>
    </symbol>
    <symbol id="comments" viewBox="0 0 14 16" fill="none" xmlns="http://www.w3.org/2000/svg">
        <path fill-rule="evenodd" clip-rule="evenodd" d="M7.01554 1.99984C9.76396 1.99984 12 4.2428 12 6.99998C12 9.7568 9.76396 11.9998 7.02995 12.0001L6.97045 11.9963C6.91566 11.9925 6.86078 11.9891 6.80554 11.9867L6.46971 11.9727L6.14783 12.0691L2.80508 13.0711L3.21094 11.4693L3.43396 10.5886L2.91761 9.84133C2.33769 9.00197 2.03115 8.01942 2.03115 6.99998C2.03115 4.2428 4.2672 1.99984 7.01554 1.99984ZM7.01554 -8e-05C3.15819 -8e-05 0.03115 3.13382 0.03115 6.99998C0.03115 8.47861 0.491246 9.84806 1.27219 10.9783L-7e-05 15.9998L6.72211 13.985C6.82023 13.9892 6.91649 13.9999 7.01554 13.9999C10.873 13.9999 14 10.866 14 6.99998C14 3.13382 10.873 -8e-05 7.01554 -8e-05Z" fill="#7E8E9F"/>
    </symbol>
</svg>
