<svg width="130" height="104" viewBox="0 0 130 104" fill="none" xmlns="http://www.w3.org/2000/svg">
<path fill-rule="evenodd" clip-rule="evenodd" d="M-9e-05 51H30V104H-9e-05V51Z" fill="#1E88E5"/>
<path opacity="0.7" fill-rule="evenodd" clip-rule="evenodd" d="M-9e-05 23.9999H30V51H-9e-05V23.9999Z" fill="#1E88E5"/>
<path opacity="0.4" fill-rule="evenodd" clip-rule="evenodd" d="M-9e-05 -0.000144H30V23.9999H-9e-05V-0.000144Z" fill="#1E88E5"/>
<path fill-rule="evenodd" clip-rule="evenodd" d="M100 51H130V104H100V51Z" fill="#7E57C2"/>
<path opacity="0.7" fill-rule="evenodd" clip-rule="evenodd" d="M100 23.9999H130V51H100V23.9999Z" fill="#7E57C2"/>
<path opacity="0.4" fill-rule="evenodd" clip-rule="evenodd" d="M100 -0.000144H130V23.9999H100V-0.000144Z" fill="#7E57C2"/>
<path fill-rule="evenodd" clip-rule="evenodd" d="M49.9999 68H79.9999V104H49.9999V68Z" fill="#1DE9B6"/>
<path opacity="0.7" fill-rule="evenodd" clip-rule="evenodd" d="M49.9999 32.9999H79.9999V68H49.9999V32.9999Z" fill="#1DE9B6"/>
<path opacity="0.4" fill-rule="evenodd" clip-rule="evenodd" d="M49.9999 -0.000132H79.9999V32.9999H49.9999V-0.000132Z" fill="#1DE9B6"/>
</svg>
