<svg width="152" height="72" viewBox="0 0 152 72" fill="none" xmlns="http://www.w3.org/2000/svg">
<path fill-rule="evenodd" clip-rule="evenodd" d="M16 -0.00016C24.8365 -0.00016 32 7.16342 32 15.9999C32 24.8365 24.8365 31.9999 16 31.9999C7.16346 31.9999 -6.4e-05 24.8365 -6.4e-05 15.9999C-6.4e-05 7.16342 7.16346 -0.00016 16 -0.00016Z" fill="#B0BEC5"/>
<path fill-rule="evenodd" clip-rule="evenodd" d="M56 -0.00016C64.8365 -0.00016 71.9999 7.16342 71.9999 15.9999C71.9999 24.8365 64.8365 31.9999 56 31.9999C47.1634 31.9999 40 24.8365 40 15.9999C40 7.16342 47.1634 -0.00016 56 -0.00016Z" fill="#CFD8DC"/>
<path fill-rule="evenodd" clip-rule="evenodd" d="M95.9999 -0.00016C104.836 -0.00016 112 7.16342 112 15.9999C112 24.8365 104.836 31.9999 95.9999 31.9999C87.1634 31.9999 79.9999 24.8365 79.9999 15.9999C79.9999 7.16342 87.1634 -0.00016 95.9999 -0.00016Z" fill="#B0BEC5"/>
<path fill-rule="evenodd" clip-rule="evenodd" d="M136 -0.00016C144.837 -0.00016 152 7.16342 152 15.9999C152 24.8365 144.837 31.9999 136 31.9999C127.163 31.9999 120 24.8365 120 15.9999C120 7.16342 127.163 -0.00016 136 -0.00016Z" fill="#CFD8DC"/>
<path fill-rule="evenodd" clip-rule="evenodd" d="M16 39.9999C24.8365 39.9999 32 47.1633 32 55.9999C32 64.8365 24.8365 71.9999 16 71.9999C7.16346 71.9999 -6.4e-05 64.8365 -6.4e-05 55.9999C-6.4e-05 47.1633 7.16346 39.9999 16 39.9999Z" fill="#CFD8DC"/>
<path fill-rule="evenodd" clip-rule="evenodd" d="M56 39.9999C64.8365 39.9999 71.9999 47.1633 71.9999 55.9999C71.9999 64.8365 64.8365 71.9999 56 71.9999C47.1634 71.9999 40 64.8365 40 55.9999C40 47.1633 47.1634 39.9999 56 39.9999Z" fill="#B0BEC5"/>
<path fill-rule="evenodd" clip-rule="evenodd" d="M95.9999 39.9999C104.836 39.9999 112 47.1633 112 55.9999C112 64.8365 104.836 71.9999 95.9999 71.9999C87.1634 71.9999 79.9999 64.8365 79.9999 55.9999C79.9999 47.1633 87.1634 39.9999 95.9999 39.9999Z" fill="#CFD8DC"/>
</svg>
